<svg xmlns="http://www.w3.org/2000/svg" viewBox="0 0 100 100">
  <!-- Lime green rounded square background -->
  <rect width="100" height="100" rx="22" fill="#d5ff40"/>
  <!-- CV symbol from CONVRT logo, white, cropped and centered -->
  <svg viewBox="130 148 300 172" x="8" y="8" width="84" height="84" preserveAspectRatio="xMidYMid meet">
    <path fill="#0a0a0b" d="M266.86,264.43c-6.92,10.23-17.89,16.8-28.99,17.92-12.74,1.29-24.74-2.76-33.44-12.24-10.04-10.94-13.75-24.24-10.93-39.11,2.18-11.52,10.16-23.56,22.25-29.5,17.07-8.39,36.72-3.43,48.3,11.46,4.18,5.37,6.67,11.07,9.54,17.8l17.19-33.47c-14.88-20.64-38.47-31.71-63.81-29.62-23.54,1.94-45.26,16.25-56.8,38.3-12.02,22.97-10.97,51.06,2.59,73,12.49,20.22,33.16,32.85,55.78,34.16,23.71,1.38,46.01-8.78,60.37-27.98l-15.3-32.72-6.75,12.01Z"/>
    <path fill="#0a0a0b" d="M372.13,166.65c-5.09,3.21.29-.19-4.89,3.08l-27.68,18.13c4.98,2.96,17.82,8.43,23.3,10.68l-6.8,13.58-2.82,6.12-23.84,48.45c-.29.59.28-.56-1.38,2.65l-2.34.03-8.04-18.18c.36.88-2.1-4.71-4.73-10.69l-1.11-2.52c-6.3-13.72-4.27-9.46-.87-2-1.87-4.25-3.47-7.89-3.77-8.52-7.15-15.25-6.3-13.71-10.08-21.53l-17.59,33.8,32.85,71.01c.1.22.23.42.39.61l1.17,1.34c8.81-.37,17.51-.33,26.1.12l.92-1.12,20.42-42.18,6.02-11.83,22.08-45.43,23.08,12.54-6.67-78.77c-10.82,6.49-23.2,13.8-33.73,20.64Z"/>
    <path fill="#0a0a0b" d="M317.66,251.19s0,0,0,0c-1.34-3.32-4.36-10.04-6.71-15.21.64,1.47,1.32,3.01,1.99,4.52l4.73,10.69Z"/>
  </svg>
</svg>
